<?xml version="1.0" encoding="utf-8" ?><svg xmlns="http://www.w3.org/2000/svg" xmlns:xlink="http://www.w3.org/1999/xlink" width="4096" height="4096" viewBox="0 0 4096 4096"><path fill="#3E52CA" d="M2064.18 1536.4C2086.09 1541.88 2130.33 1574.86 2156 1587.88C2227.73 1624.26 2297.7 1653.28 2375.38 1674.66C2396.45 1680.47 2478.63 1693.14 2487.5 1703.61C2494.4 1722.12 2491.8 1758.32 2491.69 1780.2C2491.07 1901.86 2481.69 2020.68 2444.83 2137.12C2380.92 2338.99 2249.06 2460.63 2064.16 2554.62C2054.99 2552.54 2034.05 2540.8 2025.43 2536.1C1855.07 2443.21 1729.57 2313.2 1677.89 2122.09C1646.53 2008.46 1637.22 1890.15 1638.84 1772.64C1639.07 1755.99 1636.01 1716.96 1643.36 1703.72C1658.15 1692.6 1701.75 1687.36 1722.37 1682.91C1758.01 1674.96 1793.13 1664.89 1827.57 1652.76C1873.11 1636.51 1917.41 1616.98 1960.11 1594.3C1979.85 1583.74 2050.65 1539.84 2064.18 1536.4ZM2130.77 2261.73C2156.34 2260.32 2212.47 2263.6 2230.45 2245.24C2235.99 2239.58 2237.32 2225.34 2238.13 2217.52C2241.33 2186.45 2239.43 2153.7 2239.49 2122.41C2239.55 2089.87 2241.32 2056.1 2239.15 2023.71C2238.35 2011.96 2235.98 1994.74 2227.34 1985.93C2218.08 1976.51 2031.95 1980.62 2005.32 1980.99C1978.93 1981.11 1929.42 1977.56 1906.96 1986.27C1896.05 1990.5 1894.2 2035.13 1896.07 2045.38C1901.29 2074.03 1884.08 2235.24 1911.58 2245.93C1963.48 2266.09 2074.64 2265.98 2130.77 2261.73ZM1912.19 1954.01C1926.96 1954.23 1964.83 1956.58 1976.45 1950.66C1987.07 1935.47 1962.3 1852.72 2047.49 1836.55C2057.66 1834.62 2063.74 1834.89 2074.62 1835.06C2143.38 1843.45 2152.14 1894.42 2156.31 1952.06C2177.03 1952.07 2199.88 1952.68 2220.31 1950.46C2221.53 1894.46 2219.91 1858.86 2178.33 1814.84C2146.88 1781.53 2110.93 1767.22 2065.55 1766.69C2061.45 1766.6 2057.35 1766.66 2053.26 1766.86C2009.11 1770.59 1973.8 1785.95 1944.63 1820.42C1910.23 1861.08 1911.75 1903.85 1912.19 1954.01Z"/><path fill="#3E52CA" d="M2056.35 2070.03C2057.39 2069.98 2058.44 2069.94 2059.48 2069.92C2101.04 2068.99 2108.76 2105.82 2078.67 2132.92C2081.14 2147.7 2089.34 2175.72 2077.7 2186.35C2055.16 2187.22 2042.1 2187.78 2045.63 2159.3C2046.72 2150.46 2047.43 2140.21 2048.24 2131.22C2026.26 2105.85 2021.54 2086.21 2056.35 2070.03Z"/></svg>